<svg xmlns="http://www.w3.org/2000/svg" width="1024" height="1024" viewBox="-54.0 -54.0 1132.0 1132.0">
  <g fill="none" stroke="black" stroke-width="50" stroke-linecap="round" stroke-linejoin="round">
    <path d="M 442.612,626.065 C 482.037,639.444 490.646,641.235 503.402,642.606 C 520.374,642.627 537.401,640.341 554.592,635.69 C 578.822,626.347 584.16,625.154 594.647,626.178 C 610.718,629.942 627.203,634.832 642.66,640.562 C 660.798,649.219 677.573,659.734 691.412,671.042 C 703.638,683.906 712.145,695.835 719.815,710.163 Q 725.089,725.139 730.064,746.507" data-line="nan"  stroke-width="50.0"/>
    <path d="M 730.064,746.507 C 737.379,803.167 742.814,855.886 742.99,867.819 C 740.747,877.812 736.54,884.648 732.224,888.502 Q 727.465,891.219 718.717,893.5" data-line="nan"  stroke-width="50.0"/>
    <path d="M 307.046,893.476 C 297.428,890.47 290.483,885.791 288.175,883.123 C 283.893,874.951 282.345,864.404 288.183,804.986 C 293.811,757.038 299.579,728.6 306.876,707.589 C 316.474,690.7 326.395,678.281 338.38,666.68 C 355.28,654.244 372.053,645.077 389.01,637.845 Q 410.106,630.915 436.717,624.304" data-line="nan"  stroke-width="50.0"/>
    <path d="M 785.989,256.704 L 239.421,256.273" data-line="1.0"  stroke-width="50.0"/>
    <path d="M 787.757,256.704 L 787.643,755.653" data-line="2.0"  stroke-width="50.0"/>
    <path d="M 787.643,757.456 L 731.887,757.485" data-line="3.0"  stroke-width="50.0"/>
    <path d="M 293.811,757.038 L 238.966,757.731" data-line="4.0"  stroke-width="50.0"/>
    <path d="M 239.421,256.273 L 238.967,753.441" data-line="5.0"  stroke-width="50.0"/>
    <path d="M 1019.065,44.666 L 787.758,255.102" data-line="6.0"  stroke-width="50.0"/>
    <path d="M 8.452,44.984 L 239.421,256.273" data-line="7.0"  stroke-width="50.0"/>
    <path d="M 4.0,979.334 L 234.45,757.795" data-line="8.0"  stroke-width="50.0"/>
    <path d="M 1020.0,976.624 L 789.559,757.458" data-line="9.0"  stroke-width="50.0"/>
    <path d="M 442.612,626.065 L 436.717,624.304" data-line="10.0"  stroke-width="50.0"/>
    <path d="M 718.717,893.5 L 307.046,893.476" data-line="13.0"  stroke-width="50.0"/>
    <circle cx="511.9640839741693" cy="468.69728299652974" r="113.51247716163094" data-line="18.0"  stroke-width="50.0"/>
  </g>
</svg>